# AST/ASF file generated using VICON BodyLanguage
# -----------------------------------------------
:version 1.10
:name VICON
:units
  mass 1.0
  length 0.45
  angle deg
:documentation
   .ast/.asf automatically generated from VICON data using
   VICON BodyBuilder and BodyLanguage model FoxedUp or BRILLIANT.MOD
:root
   order TX TY TZ RX RY RZ
   axis XYZ
   position 0 0 0  
   orientation 0 0 0 
:bonedata
  begin
     id 1 
     name lhipjoint
     direction 0.521452 -0.77106 0.36545 
     length 2.0933 
     axis 0 0 0  XYZ
  end
  begin
     id 2 
     name lfemur
     direction 0.34202 -0.939693 0  
     length 6.83441  
     axis 0 0 20  XYZ
    dof rx ry rz
    limits (-160.0 20.0)
           (-70.0 70.0)
           (-60.0 70.0)
  end
  begin
     id 3 
     name ltibia
     direction 0.34202 -0.939693 0   
     length 7.28749   
     axis 0 0 20   XYZ
    dof rx
    limits (-10.0 170.0)
  end
  begin
     id 4 
     name lfoot
     direction 0.100608 -0.276418 0.955757   
     length 1.52195   
     axis -90 7.62852e-016 20   XYZ
    dof rx rz
    limits (-45.0 90.0)
           (-70.0 20.0)
  end
  begin
     id 5 
     name ltoes
     direction 1.53558e-011 -4.21907e-011 1   
     length 0.770459   
     axis -90 7.62852e-016 20   XYZ
    dof rx
    limits (-90.0 20.0)
  end
  begin
     id 6 
     name rhipjoint
     direction -0.488071 -0.788702 0.373812   
     length 2.04648  
     axis 0 0 0  XYZ 
  end
  begin
     id 7 
     name rfemur
     direction -0.34202 -0.939693 0   
     length 6.92583   
     axis 0 0 -20   XYZ
    dof rx ry rz
    limits (-160.0 20.0)
           (-70.0 70.0)
           (-70.0 60.0)
  end
  begin
     id 8 
     name rtibia
     direction -0.34202 -0.939693 0   
     length 7.41043   
     axis 0 0 -20   XYZ
    dof rx
    limits (-10.0 170.0)
 end
 begin
     id 9 
     name rfoot
     direction -0.0784433 -0.215521 0.973343   
     length 1.67708  
     axis -90 -7.62852e-016 -20   XYZ
    dof rx rz
    limits (-45.0 90.0)
           (-20.0 70.0)
  end
  begin
     id 10 
     name rtoes
     direction -1.53551e-011 -4.21842e-011 1   
     length 0.849787   
     axis -90 -7.62852e-016 -20   XYZ
    dof rx
    limits (-90.0 20.0)
  end
  begin
     id 11 
     name lowerback
     direction -0.0122332 0.997575 -0.0685192   
     length 1.98724   
     axis 0 0 0   XYZ
    dof rx ry rz
    limits (-20.0 45.0)
           (-30.0 30.0)
           (-30.0 30.0)
  end
  begin
     id 12 
     name upperback
     direction 0.0182347 0.999724 -0.0148421   
     length 1.99029   
     axis 0 0 0   XYZ
    dof rx ry rz
    limits (-20.0 45.0)
           (-30.0 30.0)
           (-30.0 30.0)
  end
  begin
     id 13 
     name thorax
     direction 0.0242908 0.99956 0.0170184   
     length 1.99573   
     axis 0 0 0   XYZ
    dof rx ry rz
    limits (-20.0 45.0)
           (-30.0 30.0)
           (-30.0 30.0)
  end
  begin
     id 14 
     name lowerneck
     direction 0.0654488 0.985533 0.156338   
     length 1.4285   
     axis 0 0 0   XYZ
    dof rx ry rz
    limits (-20.0 45.0)
           (-30.0 30.0)
           (-30.0 30.0)
  end
  begin
     id 15 
     name upperneck
     direction -0.02953 0.998556 -0.0448842   
     length 1.44709   
     axis 0 0 0   XYZ
    dof rx ry rz
    limits (-20.0 45.0)
           (-30.0 30.0)
           (-30.0 30.0)
  end
  begin
     id 16
     name head
     direction -0.0155588 0.999386 -0.0314063  
     length 1.44689  
     axis 0 0 0   XYZ
    dof rx ry rz
    limits (-20.0 45.0)
           (-30.0 30.0)
           (-30.0 30.0)
  end
  begin
     id 17 
     name lclavicle
     direction 0.968229 0.236071 -0.0824755  
     length 3.60593  
     axis 0 0 0   XYZ
    dof ry rz
    limits (-20.0 10.0)
           (0.0 20.0)
  end
  begin
     id 18 
     name lhumerus
     direction 1 -4.48968e-011 7.8138e-029   
     length 5.06035   
     axis 180 -30 -90   XYZ
    dof rx ry rz
    limits (-60.0 90.0)
           (-90.0 90.0)
           (-90.0 90.0)
  end
  begin
     id 19
     name lradius
     direction 1 -4.48967e-011 9.02887e-028   
     length 3.1478   
     axis 180 -30 -90   XYZ
    dof rx
    limits (-10.0 170.0)
  end
  begin
     id 20
     name lwrist
     direction 1 -4.48961e-011 7.20928e-028   
     length 1.5739   
     axis -5.52449e-016 90 90   XYZ
    dof ry
    limits (-180.0 0.0)
 end
  begin
     id 21 
     name lhand
     direction 1 -4.48972e-011 1.44186e-027   
     length 0.606747   
     axis -9.20027e-016 90 90   XYZ
    dof rx rz
    limits (-90.0 90.0)
           (-45.0 45.0)
  end
  begin
     id 22 
     name lfingers
     direction 1 -4.48943e-011 2.88371e-027   
     length 0.489175   
     axis -1.84005e-015 90 90   XYZ
    dof rx
    limits (0.0 90.0)
  end
  begin
     id 23
     name lthumb
     direction 0.707107 -6.34917e-011 0.707107   
     length 0.70236   
     axis -90 45 2.85299e-015   XYZ
    dof rx rz
    limits (-45.0 45.0)
           (-45.0 45.0)
  end
  begin
     id 24 
     name rclavicle
     direction -0.978165 0.207816 0.0022268   
     length 3.35425  
     axis 0 0 0   XYZ 
    dof ry rz
    limits (-10.0 20.0)
           (-20.0 0.0)
  end
  begin
     id 25 
     name rhumerus
     direction -1 -4.48964e-011 -4.02159e-027  
     length 5.12273   
     axis 180 30 90   XYZ
    dof rx ry rz
    limits (-90.0 60.0)
           (-90.0 90.0)
           (-90.0 90.0)
  end
  begin
     id 26 
     name rradius
     direction -1 -4.48966e-011 1.62746e-027   
     length 3.422   
     axis 180 30 90   XYZ
    dof rx
    limits (-10.0 170.0)
  end
  begin
     id 27 
     name rwrist
     direction -1 -4.4896e-011 7.20928e-028   
     length 1.711   
     axis -5.52449e-016 -90 -90   XYZ
    dof ry
    limits (-180.0 0.0)
  end
  begin
     id 28
     name rhand
     direction -1 -4.48979e-011 1.44186e-027   
     length 0.704599   
     axis -9.20027e-016 -90 -90   XYZ
    dof rx rz
    limits (-90.0 90.0)
           (-45.0 45.0)
  end
  begin
     id 29
     name rfingers
     direction -1 -4.48962e-011 2.88371e-027   
     length 0.568066   
     axis -1.84005e-015 -90 -90   XYZ
    dof rx
    limits (0.0 90.0)
  end
  begin
     id 30
     name rthumb
     direction -0.707107 -6.34949e-011 0.707107   
     length 0.815633   
     axis -90 -45 -2.85299e-015   XYZ
    dof rx rz
    limits (-45.0 45.0)
           (-45.0 45.0)
  end
:hierarchy
  begin
    root lhipjoint rhipjoint lowerback
    lhipjoint lfemur
    lfemur ltibia
    ltibia lfoot
    lfoot ltoes
    rhipjoint rfemur
    rfemur rtibia
    rtibia rfoot
    rfoot rtoes
    lowerback upperback
    upperback thorax
    thorax lowerneck lclavicle rclavicle
    lowerneck upperneck
    upperneck head
    lclavicle lhumerus
    lhumerus lradius
    lradius lwrist
    lwrist lhand lthumb
    lhand lfingers
    rclavicle rhumerus
    rhumerus rradius
    rradius rwrist
    rwrist rhand rthumb
    rhand rfingers
  end

#!OML:ASF E:\id_vita\Project 1\Capture day 1\Session 1\Male1.ASF
:FULLY-SPECIFIED
:DEGREES
341
root -28.6135 13.2534 -5.03322 49.7738 78.8162 -5.51239
lowerback 19.0759 3.66538 -5.99259
upperback 5.13984 3.62745 -3.70132
thorax -5.20558 1.89651 -1.41979
lowerneck -13.2354 -0.906008 3.31714
upperneck 13.5425 -2.49013 4.37547
head 6.32544 -0.63574 0.629128
rclavicle 2.78299e-014 5.52621e-014
rhumerus 55.6709 2.6583 -63.541
rradius 34.704
rwrist 25.6871
rhand -42.2446 260.201
rfingers 7.12502
rthumb -15.1307 70.3724
lclavicle 2.78299e-014 5.52621e-014
lhumerus 70.4029 -15.3966 50.702
lradius 25.8293
lwrist -23.331
lhand -38.1629 83.5905
lfingers 7.12502
lthumb -11.1964 -113.272
rfemur -37.2802 11.9843 9.33761
rtibia 48.4702
rfoot -15.7983 -17.8838
rtoes 26.3677
lfemur -79.5687 1.60035 -27.8948
ltibia 78.9067
lfoot -50.4314 10.4409
ltoes 25.5253
342
root -28.55 13.2755 -5.04902 50.4544 79.1236 -4.97151
lowerback 18.8314 3.60816 -5.82028
upperback 5.19793 3.61521 -3.65923
thorax -5.00768 1.88751 -1.44875
lowerneck -13.3856 -0.982923 3.38773
upperneck 13.5401 -2.62466 4.42507
head 6.35173 -0.690769 0.620488
rclavicle -3.29983e-014 5.56597e-015
rhumerus 55.6313 2.38628 -63.2809
rradius 34.5313
rwrist 25.5326
rhand -42.1978 259.61
rfingers 7.12502
rthumb -15.0857 70.9601
lclavicle -3.29983e-014 5.56597e-015
lhumerus 70.6917 -15.561 50.9072
lradius 25.4983
lwrist -23.4989
lhand -38.2759 83.2855
lfingers 7.12502
lthumb -11.3054 -112.961
rfemur -37.3659 11.6543 9.4226
rtibia 48.4716
rfoot -14.0576 -17.0188
rtoes 26.579
lfemur -79.2093 1.40438 -27.9291
ltibia 78.214
lfoot -50.2419 10.2263
ltoes 25.9862
343
root -28.487 13.2941 -5.06936 51.6629 79.5283 -3.8816
lowerback 18.6409 3.49114 -5.58158
upperback 5.25926 3.53532 -3.57616
thorax -4.8328 1.84614 -1.45905
lowerneck -13.5424 -1.06711 3.38229
upperneck 13.4585 -2.74362 4.41395
head 6.3531 -0.750734 0.605959
rclavicle 3.97569e-015 6.77856e-014
rhumerus 55.753 2.20203 -63.0748
rradius 34.2521
rwrist 25.6358
rhand -42.2922 259.532
rfingers 7.12502
rthumb -15.1767 71.0443
lclavicle 3.97569e-015 6.77856e-014
lhumerus 70.9873 -15.715 51.0755
lradius 25.1616
lwrist -23.5931
lhand -38.4394 83.2138
lfingers 7.12502
lthumb -11.463 -112.88
rfemur -37.5842 10.9585 9.62205
rtibia 48.9548
rfoot -12.8312 -16.0441
rtoes 26.7373
lfemur -78.8684 1.06416 -27.9508
ltibia 77.7222
lfoot -50.1727 9.99235
ltoes 26.2926
344
root -28.4316 13.3056 -5.08915 53.7248 79.7129 -1.92986
lowerback 18.5314 3.35246 -5.54855
upperback 5.30385 3.37831 -3.60361
thorax -4.72085 1.77098 -1.46185
lowerneck -13.7198 -1.04813 3.36913
upperneck 13.3261 -2.71594 4.37156
head 6.34019 -0.74465 0.596278
rclavicle 2.78299e-014 9.61124e-014
rhumerus 55.919 2.08688 -63.0825
rradius 33.9859
rwrist 25.7974
rhand -42.6127 260.075
rfingers 7.12502
rthumb -15.4854 70.5257
lclavicle 2.78299e-014 9.61124e-014
lhumerus 71.1917 -15.7724 51.0839
lradius 24.9335
lwrist -23.652
lhand -38.4401 84.8137
lfingers 7.12502
lthumb -11.4637 -114.48
rfemur -37.8362 10.4187 9.50977
rtibia 49.5004
rfoot -11.8831 -15.3827
rtoes 27.1104
lfemur -78.5323 0.679863 -28.2044
ltibia 77.2358
lfoot -50.1018 9.80956
ltoes 26.6147
345
root -28.4417 13.2106 -5.10026 55.4857 79.8567 -0.280592
lowerback 18.5222 3.29649 -5.64442
upperback 5.2823 3.29071 -3.57856
thorax -4.74381 1.72975 -1.36202
lowerneck -13.8465 -1.11415 3.37845
upperneck 13.2748 -2.82422 4.44516
head 6.34753 -0.790303 0.607509
rclavicle -5.08889e-014 -2.0773e-014
rhumerus 55.7147 1.93936 -62.6785
rradius 34.0028
rwrist 25.3786
rhand -42.7329 260.384
rfingers 7.12502
rthumb -15.6011 70.2248
lclavicle -5.08889e-014 -2.0773e-014
lhumerus 71.2897 -15.8888 51.2963
lradius 24.6908
lwrist -23.8212
lhand -38.2181 83.6015
lfingers 7.12502
lthumb -11.2497 -113.28
rfemur -38.4209 9.98003 9.46508
rtibia 50.4814
rfoot -10.9435 -15.2166
rtoes 27.6289
lfemur -78.9844 0.368655 -28.4023
ltibia 77.3407
lfoot -49.8152 9.80468
ltoes 26.3749
346
root -28.3172 13.3441 -5.12353 56.9592 80.0336 1.1744
lowerback 18.8251 3.19062 -5.82796
upperback 5.11047 3.08854 -3.4038
thorax -5.10274 1.63597 -1.05117
lowerneck -13.5515 -1.10811 3.3144
upperneck 12.8278 -2.75043 4.31982
head 6.15202 -0.788648 0.586123
rclavicle -5.1684e-015 -1.26825e-013
rhumerus 55.926 2.17147 -63.0999
rradius 33.3845
rwrist 25.8705
rhand -42.5938 259.716
rfingers 7.12502
rthumb -15.4671 70.8829
lclavicle -5.1684e-015 -1.26825e-013
lhumerus 71.0007 -15.886 51.883
lradius 24.2682
lwrist -24.1365
lhand -38.0981 83.4493
lfingers 7.12502
lthumb -11.1339 -113.134
rfemur -38.5029 9.17246 9.52601
rtibia 51.0557
rfoot -10.1788 -14.6052
rtoes 27.726
lfemur -77.7653 0.139698 -28.5797
ltibia 76.3973
lfoot -50.0435 9.87621
ltoes 25.7807
347
root -28.2563 13.3625 -5.14328 58.9375 80.1805 3.13739
lowerback 19.0212 3.14471 -5.94092
upperback 5.02098 2.98993 -3.29811
thorax -5.3108 1.59169 -0.866424
lowerneck -13.5563 -1.0832 3.51027
upperneck 12.604 -2.68306 3.86448
head 6.07071 -0.792783 0.415941
rclavicle -8.34896e-015 -1.76918e-014
rhumerus 55.8029 2.11833 -62.9378
rradius 33.1924
rwrist 25.9624
rhand -42.7162 259.037
rfingers 7.12502
rthumb -15.585 71.5706
lclavicle -8.34896e-015 -1.76918e-014
lhumerus 70.972 -16.0376 52.601
lradius 23.8631
lwrist -24.6567
lhand -37.9217 84.0918
lfingers 7.12502
lthumb -10.9637 -113.786
rfemur -38.8729 8.41091 9.47102
rtibia 52.0572
rfoot -9.47628 -13.7788
rtoes 27.7585
lfemur -77.3079 -0.159026 -28.8503
ltibia 76.0635
lfoot -50.1179 9.84484
ltoes 25.5037
348
root -28.2642 13.2671 -5.15688 61.5753 80.247 5.63884
lowerback 18.9322 3.02903 -5.89718
upperback 5.00216 2.85315 -3.38905
thorax -5.27331 1.52674 -0.951647
lowerneck -13.7064 -1.10553 3.59877
upperneck 12.568 -2.72324 3.75431
head 6.08189 -0.816809 0.362244
rclavicle 5.36719e-014 -5.65542e-014
rhumerus 55.9237 1.96657 -63.1606
rradius 32.8345
rwrist 26.2854
rhand -42.8191 259.701
rfingers 7.12502
rthumb -15.6842 70.9143
lclavicle 5.36719e-014 -5.65542e-014
lhumerus 71.0693 -16.1696 52.9859
lradius 23.6193
lwrist -25.1097
lhand -37.7879 83.928
lfingers 7.12502
lthumb -10.8347 -113.628
rfemur -39.5155 7.68349 9.30575
rtibia 53.197
rfoot -8.93569 -12.6829
rtoes 27.58
lfemur -77.7025 -0.552326 -29.2043
ltibia 76.1136
lfoot -49.867 9.69115
ltoes 25.5306
349
root -28.2056 13.2819 -5.1787 63.7562 80.3736 7.65199
lowerback 18.8074 2.89549 -5.77605
upperback 4.96725 2.7105 -3.42713
thorax -5.23446 1.45744 -1.02122
lowerneck -13.8605 -1.11926 3.70822
upperneck 12.5549 -2.7536 3.61812
head 6.1002 -0.836511 0.297688
rclavicle 1.22054e-013 5.94366e-014
rhumerus 55.7853 1.95573 -62.8747
rradius 32.8403
rwrist 25.9042
rhand -42.5184 261.412
rfingers 7.12502
rthumb -15.3945 69.1816
lclavicle 1.22054e-013 5.94366e-014
lhumerus 71.1731 -16.2748 53.0514
lradius 23.3966
lwrist -25.1554
lhand -37.7446 83.4501
lfingers 7.12502
lthumb -10.7929 -113.153
rfemur -40.0566 6.83326 9.29625
rtibia 54.3243
rfoot -7.98748 -12.2138
rtoes 27.9202
lfemur -77.4075 -0.891446 -29.4548
ltibia 75.8097
lfoot -50.0426 9.47083
ltoes 25.8372
